<?xml version="1.0" encoding="utf-8"?>
<!-- Generator: Adobe Illustrator 16.0.0, SVG Export Plug-In . SVG Version: 6.00 Build 0)  -->
<!DOCTYPE svg PUBLIC "-//W3C//DTD SVG 1.1//EN" "http://www.w3.org/Graphics/SVG/1.1/DTD/svg11.dtd">
<svg version="1.1" id="Layer_1" xmlns="http://www.w3.org/2000/svg" xmlns:xlink="http://www.w3.org/1999/xlink" x="0px" y="0px"
	 width="1000px" height="122.919px" viewBox="0 0 1000 122.919" enable-background="new 0 0 1000 122.919" xml:space="preserve">
<g>
	<path fill-rule="evenodd" clip-rule="evenodd" fill="#ffffff" d="M443.317,0.063c1.592,0.001,3.253-0.266,4.786,0.292
		c2.096,0.616,4.303,0.649,6.468,0.867c3.774,0.295,7.559,0.497,11.348,0.422c172.407,0.003,342.643,0,515.053,0.003
		c4.599,0.049,9.214-0.321,13.72-1.287c0.613-0.078,1.306-0.354,1.923-0.034c0.938,0.885,0.532,2.314,0.729,3.454
		c0.525,4.778,1.566,7.743,2.556,12.434c0.163,0.968,0.197,2.092-0.447,2.91c-0.638,0.727-1.95,0.521-2.289-0.39
		c-2.315-5.68-3.591-6.935-8.175-8.162c-5.829-1.56-11.916-1.743-17.914-1.692c-32.966,0.029-65.932-0.051-98.897-0.038
		c-31.321-0.053-62.643-0.017-93.964-0.068c-33.942,0.015-67.881-0.071-101.82-0.037c-23.177-0.098-46.356,0.022-69.529-0.073
		c-37.998,0.023-75.999-0.063-113.996-0.036c0.015,16.23-0.008,32.462,0.003,48.69c0.022,14.689-0.064,28.873,0.224,43.56
		c0.149,4.34,0.139,8.711,0.875,13.007c0.357,2.082,1.426,4.36,3.637,5.012c2.802,0.753,5.742,0.712,8.613,1.004
		c0.986,0.074,1.557,1.346,0.963,2.122c-0.624,0.824-1.777,0.852-2.72,0.889c-4.847-0.014-9.699-0.129-14.55-0.306
		c-6.483-0.369-12.968,0.495-19.457,0.278c-0.807-0.047-1.811-0.399-1.939-1.309c-0.248-0.834,0.456-1.683,1.317-1.688
		c1.785-0.136,3.591-0.325,5.317-0.827c1.404-0.458,2.088-1.893,2.497-3.188c0.963-3.282,1.114-6.714,1.256-10.108
		c0.256-6.809,0.307-13.126,0.329-19.935c0.074-25.738,0.015-51.475,0.032-77.208c-7.599,0.115-13.024,0.181-20.622,0.3
		c-3.27,0.104-6.629,0.196-9.731,1.333c-1.527,0.554-2.871,1.564-3.794,2.89c-1.156,1.629-2.121,3.384-2.913,5.21
		c-0.317,0.839-1.224,1.618-2.163,1.289c-0.917-0.351-0.919-1.492-0.822-2.299c0.476-3.106,1.241-6.159,1.922-9.225
		C441.802,5.417,442.22,2.64,443.317,0.063L443.317,0.063z"/>
	<path fill-rule="evenodd" clip-rule="evenodd" fill="#ffffff" d="M54.073,4.8c8.57-0.675,17.207-0.322,25.696,1.066
		c4.3,0.605,8.508,1.795,12.839,2.18c1.692,0.2,3.388,0.307,5.086,0.429c0.853,0.075,1.894,0.38,2.19,1.326
		c0.165,0.933-0.008,1.882-0.091,2.813c-0.723,6.398-0.829,12.852-0.861,19.287c-0.041,0.829-0.036,1.739-0.483,2.465
		c-0.512,0.797-1.924,0.915-2.323-0.053c-0.582-1.277-0.442-2.748-0.741-4.103c-0.687-3.618-2.011-7.333-4.73-9.851
		c-3.154-3.016-7.141-4.899-11.168-6.313c-8.136-2.747-16.802-3.406-25.306-2.987c-3.792,0.163-7.56,0.764-11.235,1.721
		c-5.848,1.614-11.304,4.634-15.956,8.62c-6.328,5.676-9.995,13.884-11.836,22.198c-1.98,9.269-2.055,19.007,0.066,28.254
		c1.889,8.213,5.325,16.076,10.237,22.834c2.593,3.632,5.936,6.612,9.413,9.305c4.727,3.581,10.019,6.368,15.619,8.151
		c6.287,1.98,12.916,2.729,19.472,2.347c4.004-0.346,8.076-0.76,11.851-2.275c1.153-0.539,2.38-1.115,3.155-2.193
		c0.792-1.14,0.931-2.591,0.934-3.954c-0.003-8.545,0-17.097-0.003-25.642c-0.048-2.686-0.027-5.388-0.453-8.047
		c-0.261-1.56-0.781-3.234-2.118-4.16c-2.431-1.726-5.478-1.927-8.334-2.001c-0.846,0.048-1.906-0.507-1.777-1.521
		c0.023-1.066,1.187-1.48,2.057-1.488c4.002-0.088,8.006,0.088,12.007,0.205c2.313,0.041,4.625,0.278,6.941,0.134
		c3.995-0.177,7.989-0.326,11.985-0.396c0.856,0.007,1.75-0.018,2.558,0.321c0.863,0.357,1.124,1.751,0.346,2.334
		c-0.749,0.594-1.763,0.384-2.638,0.546c-1.792,0.258-3.808,0.438-5.161,1.835c-1.397,1.488-1.645,3.665-1.853,5.632
		c-0.415,5.778-0.344,11.57-0.354,17.361c0,5.425-0.003,10.845,0,16.27c-0.027,1.604,0.019,3.218-0.178,4.814
		c-0.124,0.773-0.297,1.614-0.887,2.163c-0.744,0.696-1.694,1.079-2.592,1.513c-3.006,1.513-6.212,2.55-9.438,3.438
		c-12.477,3.238-25.613,3.285-38.239,0.949c-10.466-1.997-20.648-6.279-28.951-13.251c-4.486-3.669-8.097-8.386-10.966-13.479
		c-4.708-8.43-7.424-18.039-7.801-27.769c-0.379-9.845,1.314-19.824,5.246-28.822c3.26-7.465,8.098-14.24,14.269-19.408
		C27.577,10.848,37.61,7.028,47.778,5.556C49.858,5.156,51.971,5.029,54.073,4.8L54.073,4.8z"/>
	<path fill-rule="evenodd" clip-rule="evenodd" fill="#ffffff" d="M715.363,22.968c-3.123,0.167-6.226,0.683-9.247,1.477
		c-7.154,1.884-13.736,5.879-18.737,11.325c-5.297,5.767-8.864,13.016-10.647,20.613c-1.97,8.409-1.244,17.354,1.557,25.488
		c2.444,7.104,6.774,13.615,12.635,18.355c5.648,4.564,12.609,7.365,19.781,8.369c11.55,1.613,23.817-0.842,33.288-7.819
		c9.396-6.925,15.348-17.962,16.859-29.454c1.034-7.882,0.495-16.106-2.37-23.567c-1.813-4.725-4.581-9.094-8.121-12.716
		c-3.729-3.813-8.294-6.78-13.241-8.76C730.243,23.522,722.735,22.573,715.363,22.968L715.363,22.968z M716.791,28.038v75.648
		l-0.638-0.088c-0.82-0.105-1.638-0.241-2.444-0.414l-0.448-0.095V28.324C714.447,28.163,715.598,28.073,716.791,28.038
		L716.791,28.038z M709.107,101.848c-8.02-3.005-14.231-9.044-17.938-16.714c-3.98-8.24-5.26-17.602-4.602-26.672
		c0.55-7.58,3.374-14.601,8.227-20.454c3.723-4.487,8.758-7.409,14.367-8.875l0.709-0.185v73.185L709.107,101.848L709.107,101.848z
		 M727.849,29.594c4.113,1.374,7.775,3.63,10.878,6.656c4.896,4.781,8.603,11.091,10.227,17.744
		c1.679,6.892,1.854,14.083,1.031,21.107c-0.713,6.032-2.51,12.044-5.934,17.109c-3.846,5.684-9.62,9.285-16.253,10.817
		l-0.692,0.163V29.345L727.849,29.594L727.849,29.594z M723.192,103.747c-0.81,0.067-1.624,0.108-2.438,0.115l-0.573,0.007V28.097
		c0.912-0.024,2.614,0.171,3.53,0.438v75.172L723.192,103.747L723.192,103.747z"/>
	<path fill-rule="evenodd" clip-rule="evenodd" fill="#ffffff" d="M773.059,26.716c0.14-0.746,0.519-1.763,1.563-1.737
		c1.177,0.156,1.943,1.078,2.739,1.785c7.69,7.474,15.398,14.932,23.136,22.366c8.423,8.118,16.938,16.164,25.29,24.343
		c5.821,5.676,11.563,11.417,17.459,17.032c-0.403-16.052-0.776-32.104-1.17-48.157c-0.143-3.15,0.055-6.348-0.672-9.456
		c-0.298-1.346-1.146-2.708-2.647-3.218c-2.201-0.753-4.608-0.663-6.914-0.85c-0.926-0.044-1.363-1.129-0.861-1.767
		c0.712-0.634,1.794-0.608,2.736-0.631c3.855-0.007,7.707,0.199,11.563,0.288c4.019,0.058,8.067-0.573,12.064-0.123
		c1.356,0.164,1.248,1.965-0.017,2.165c-1.817,0.224-3.784,0.185-5.382,1.107c-1.284,0.815-1.62,2.299-1.78,3.61
		c-0.393,3.506-0.104,7.036-0.233,10.554c-0.027,14.44-0.115,28.881-0.132,43.326c-0.092,5.486,0.044,10.979-0.137,16.466
		c-0.125,0.984,0,2.137-0.752,2.947c-0.78,0.481-1.746,0.037-2.387-0.417c-1.801-1.269-3.408-2.733-5.032-4.171
		c-8.556-7.545-16.843-15.327-25.14-23.092c-12.591-11.848-24.838-23.982-37.059-36.136c0.468,14.989,0.905,29.971,1.362,44.958
		c0.112,3.168,0.099,6.346,0.557,9.492c0.377,2.092,0.824,4.814,3.367,5.659c2.126,0.624,4.388,0.59,6.592,0.803
		c0.997,0.146,1.251,1.523,0.39,1.971c-1.152,0.617-2.57,0.349-3.838,0.407c-4.585,0.054-9.159-0.499-13.733-0.201
		c-2.72,0.099-5.439,0.222-8.155,0.204c-0.732-0.017-1.556-0.051-2.075-0.556c-0.634-0.648-0.173-1.849,0.841-1.855
		c1.95-0.183,4.035-0.121,5.813-0.99c1.112-0.719,1.468-2.004,1.746-3.143c0.454-2.415,0.458-4.869,0.529-7.312
		c0.051-19.935,0.074-39.867,0.125-59.804C772.845,30.631,772.703,28.656,773.059,26.716L773.059,26.716z"/>
	<path fill-rule="evenodd" clip-rule="evenodd" fill="#ffffff" d="M950.638,23.646c5.689-0.583,11.495-0.183,17.069,0.962
		c1.374,0.312,2.808,0.292,4.201,0.515c0.841,0.224,0.851,1.11,0.79,1.747c-0.38,3.838-0.424,7.692-0.472,11.542
		c-0.067,0.809-0.152,2.011-1.277,2.184c-0.855,0.044-1.489-0.583-1.544-1.288c-0.305-1.836-0.674-3.686-1.464-5.414
		c-1.211-2.259-3.73-3.694-6.284-4.557c-3.234-1.07-6.754-1.313-10.172-1.131c-3.435,0.293-6.914,1.453-9.277,3.747
		c-4.408,4.172-4.526,11.115-0.739,15.649c3.041,3.67,7.09,6.554,10.989,9.474c5.165,3.652,10.495,7.197,14.812,11.665
		c3.429,3.466,6.205,7.615,6.951,12.234c1.313,6.195-0.233,12.854-4.425,17.978c-3.768,4.714-9.766,7.771-16.103,8.884
		c-6.976,1.229-14.316,0.93-21.112-0.932c-1.532-0.546-3.143-0.983-4.533-1.78c-1.052-0.614-1.194-1.805-1.218-2.818
		c-0.044-3.76,0.149-7.523,0.496-11.274c0.128-1.051-0.021-2.244,0.731-3.14c0.597-0.776,2.259-0.366,2.279,0.597
		c0.122,1.044,0.044,2.102,0.189,3.153c0.332,2.666,1.451,5.317,3.52,7.317c2.367,2.357,5.806,3.649,9.258,4.212
		c5.303,0.929,11.229,0.4,15.647-2.563c2.938-1.95,4.931-4.91,5.67-8.077c0.993-4.774-0.406-9.929-3.974-13.651
		c-7.67-8.098-18.752-13.134-25.767-21.78c-3.514-4.093-5.348-9.231-5.128-14.364c0.041-4.95,2.174-9.949,6.273-13.378
		C939.96,26.019,945.283,24.223,950.638,23.646L950.638,23.646z"/>
	<path fill-rule="evenodd" clip-rule="evenodd" fill="#ffffff" d="M911.128,25.559c0.867-0.137,1.658-0.697,2.573-0.561
		c1.085,0.624,0.645,1.936,0.443,2.86c-1,3.39-0.786,6.911-1.271,10.359c-0.153,0.7-0.424,1.673-1.388,1.77
		c-0.905,0.109-1.549-0.69-1.546-1.406c-0.163-1.943-0.156-4.271-2.034-5.622c-1.978-1.231-4.507-1.438-6.84-1.712
		c-5.51-0.3-11.037-0.215-16.551-0.343c-0.196,7.46-0.017,14.93-0.078,22.393c0.024,2.633-0.051,5.273,0.038,7.906
		c6.398-0.008,12.804,0.049,19.198-0.207c1.886-0.198,4.165-0.11,5.541-1.475c0.594-0.493,1.082-1.237,1.967-1.356
		c0.688-0.125,1.228,0.494,1.255,1.049c0.047,0.658-0.122,1.306-0.241,1.952c-0.885,4.004-0.982,8.102-1.258,12.158
		c-0.075,0.746-0.783,1.618-1.743,1.281c-1.284-0.358-0.912-1.759-1.048-2.658c-0.111-1.379-0.45-2.882-1.59-3.909
		c-1.468-1.177-3.533-1.428-5.433-1.563c-5.544-0.305-11.095-0.413-16.646-0.478c-0.074,8.219-0.037,16.441-0.078,24.661
		c0.156,2.93-0.298,6.138,1.533,8.755c1.732,1.927,4.812,2.046,7.385,2.266c4.438,0.139,8.922,0.244,13.326-0.387
		c2.089-0.318,4.266-1.058,5.568-2.604c1.187-1.432,1.698-3.185,2.067-4.896c0.163-0.672,0.259-1.404,0.764-1.968
		c0.417-0.528,1.488-0.576,1.885,0.008c0.489,0.657,0.356,1.498,0.34,2.248c-0.303,2.835-0.716,5.663-1.238,8.474
		c-0.271,1.16-0.521,2.39-1.376,3.344c-0.93,0.963-2.479,1.027-3.809,1.064c-9.514,0.064-19.029-0.108-28.53-0.495
		c-4.743-0.258-9.484,0.196-14.225,0.189c-1.078-0.044-2.316,0.18-3.207-0.461c-0.788-0.543-0.392-1.817,0.616-1.919
		c1.567-0.237,3.231-0.152,4.72-0.726c1.123-0.502,1.516-1.648,1.818-2.638c0.789-2.903,0.807-5.908,0.973-8.871
		c0.221-7.731,0.109-15.469,0.136-23.2c-0.007-9.054,0.007-18.107-0.003-27.161c-0.034-2.852-0.027-5.705-0.33-8.545
		c-0.158-1.387-0.647-2.941-2.095-3.713c-2.034-1.099-4.507-1.046-6.799-1.193c-0.817-0.029-1.465-0.767-1.196-1.453
		c0.247-0.761,1.305-0.959,2.105-0.958c4.642-0.044,9.28,0.177,13.923,0.275c8.856-0.005,17.71,0.037,26.563-0.061
		C907.255,25.974,909.222,25.918,911.128,25.559L911.128,25.559z"/>
	<path fill-rule="evenodd" clip-rule="evenodd" fill="#ffffff" d="M347.805,24.945c0.642-0.197,1.585-0.682,2.064,0.032
		c0.569,1.075-0.01,2.275-0.204,3.374c-0.741,3.148-0.568,6.394-0.993,9.578c-0.129,0.778-0.478,1.853-1.518,1.853
		c-1-0.063-1.387-1.068-1.353-1.863c-0.079-1.917-0.276-4.24-2.151-5.426c-2.048-1.175-4.54-1.361-6.88-1.6
		c-5.03-0.215-10.067-0.222-15.098-0.29c-0.119,10.166-0.031,20.336-0.044,30.504c5.385,0.035,10.77,0.01,16.149-0.112
		c2.081-0.105,4.241-0.081,6.214-0.766c1.367-0.446,1.875-2.279,3.471-2.182c1.147,0.497,0.745,1.87,0.604,2.779
		c-0.911,4.199-0.932,8.498-1.285,12.75c-0.063,1.153-1.838,1.573-2.375,0.502c-0.477-1.444-0.069-3.052-0.763-4.47
		c-0.499-1.59-2.162-2.539-3.828-2.841c-2.435-0.465-4.938-0.421-7.404-0.55c-3.603-0.091-7.207-0.254-10.808-0.189
		c0.068,8.314-0.054,16.636-0.025,24.953c0.071,2.652-0.147,5.456,1.016,7.944c0.741,1.676,2.725,2.408,4.518,2.689
		c3.83,0.586,7.738,0.428,11.604,0.343c2.782-0.231,5.837-0.313,8.152-1.954c1.594-1.111,2.309-2.919,2.795-4.645
		c0.3-1.024,0.342-2.116,0.827-3.093c0.348-0.678,1.611-0.973,2.048-0.224c0.503,0.807,0.329,1.787,0.273,2.672
		c-0.326,2.862-0.71,5.724-1.223,8.559c-0.244,1.136-0.554,2.367-1.483,3.201c-1.072,0.871-2.593,0.816-3.923,0.874
		c-8.441,0.027-16.885-0.122-25.314-0.494c-5.419-0.366-10.837,0.22-16.259,0.132c-0.829,0.018-1.998-0.292-2.023-1.221
		c-0.122-0.594,0.405-1.136,1.032-1.197c1.684-0.277,3.678-0.051,5.061-1.149c1.305-1.546,1.389-3.624,1.689-5.489
		c0.547-6.271,0.434-12.566,0.469-18.854c-0.014-13.041,0.012-26.077-0.01-39.115c-0.071-2.557-0.041-5.125-0.381-7.667
		c-0.193-1.368-0.892-2.799-2.311-3.403c-1.916-0.91-4.12-0.833-6.202-1c-0.946-0.062-1.439-1.25-0.783-1.875
		c0.561-0.564,1.443-0.583,2.214-0.591c4.271-0.009,8.542,0.191,12.814,0.296c8.345-0.006,16.693,0.034,25.038-0.061
		C343.413,25.553,345.695,25.611,347.805,24.945L347.805,24.945z"/>
	<path fill-rule="evenodd" clip-rule="evenodd" fill="#ffffff" d="M509.44,26.147c0.102-0.858,1.109-1.153,1.861-1.149
		c4.297-0.059,8.586,0.193,12.882,0.278c3.5-0.074,6.999-0.292,10.502-0.308c0.631,0.027,1.346,0.054,1.865,0.488
		c0.627,0.478,0.44,1.671-0.356,1.882c-1.821,0.436-4.008,0.115-5.47,1.483c-1.471,1.597-1.322,3.926-1.484,5.931
		c-0.245,8.053-0.133,16.115-0.156,24.175c15.492,0.005,30.981,0.003,46.472,0.003c-0.027-7.861,0.088-15.723-0.129-23.578
		c-0.207-2.136,0.071-4.688-1.598-6.341c-1.79-1.457-4.271-1.409-6.466-1.538c-0.726,0.025-1.381-0.605-1.285-1.326
		c0.132-0.844,1.112-1.149,1.868-1.149c4.093-0.017,8.183,0.178,12.271,0.281c3.604-0.037,7.202-0.278,10.811-0.298
		c0.793,0.012,1.732-0.012,2.315,0.629c0.506,0.609,0.122,1.653-0.664,1.801c-1.74,0.3-3.754,0.11-5.188,1.299
		c-1.417,1.32-1.414,3.396-1.563,5.174c-0.314,7.269-0.146,14.547-0.193,21.82c0,8.513,0,17.024,0,25.535
		c0.081,5.938-0.044,11.896,0.604,17.799c0.204,1.713,0.594,3.794,2.357,4.612c2.261,0.857,4.794,0.45,7.093,1.047
		c0.614,0.363,0.654,1.302,0.133,1.764c-0.624,0.522-1.499,0.495-2.262,0.516c-3.319-0.041-6.64-0.105-9.959-0.225
		c-4.652-0.298-9.308,0.296-13.964,0.218c-0.664-0.014-1.421-0.133-1.827-0.695c-0.428-0.61-0.119-1.57,0.645-1.727
		c1.42-0.236,2.915-0.163,4.269-0.722c1.048-0.479,1.424-1.658,1.716-2.669c0.719-2.997,0.739-6.104,0.885-9.168
		c0.214-9.325,0.119-18.656,0.129-27.987c-15.489-0.021-30.976-0.017-46.465-0.003c-0.003,8.812-0.055,17.624,0.105,26.437
		c0.099,3.249,0.156,6.518,0.675,9.735c0.23,1.438,0.901,3.031,2.403,3.57c2.103,0.638,4.341,0.502,6.501,0.786
		c1.059,0.156,1.163,1.761,0.203,2.14c-1.362,0.539-2.869,0.222-4.293,0.269c-4.861,0.027-9.714-0.481-14.57-0.146
		c-2.529,0.058-5.063,0.277-7.585,0.132c-0.892-0.014-1.76-0.861-1.363-1.757c0.384-0.851,1.476-0.678,2.245-0.786
		c1.42-0.155,3.262-0.237,3.933-1.723c0.954-2.109,1.071-4.469,1.258-6.74c0.451-8.233,0.259-16.479,0.303-24.72
		c0-8.512,0-17.024,0.003-25.535c-0.026-4.207,0.061-8.418-0.24-12.616c-0.146-1.532-0.394-3.338-1.784-4.289
		c-1.811-1.17-4.065-1.194-6.147-1.292C510.024,27.473,509.312,26.89,509.44,26.147L509.44,26.147z"/>
	<path fill-rule="evenodd" clip-rule="evenodd" fill="#ffffff" d="M600.254,25.783c0.444-0.709,1.435-0.802,2.235-0.807
		c4.231,0.034,8.464,0.165,12.691,0.31c7.609-0.058,15.266-0.775,22.845,0.209c4.686,0.591,9.345,2.039,13.126,4.745
		c4.255,3.301,7.106,8.194,7.517,13.353c0.234,5.134-1.133,10.315-3.899,14.764c-2.539,4.225-6.019,7.891-9.786,11.203
		c6.891,8.213,13.669,16.521,21.034,24.377c3.092,3.285,6.452,6.5,10.688,8.501c3.108,1.519,6.646,1.997,10.117,2.037
		c1.078-0.118,2.052,1.19,1.126,1.944c-1.221,0.785-2.828,0.468-4.225,0.542c-5.334-0.115-10.773,0.396-16.008-0.801
		c-5.29-1.369-9.149-5.248-12.485-9.083c-6.386-7.512-12.462-15.246-18.497-23.001c-0.516-0.651-1.085-1.513-2.093-1.403
		c-4.724-0.048-9.45-0.19-14.174-0.174c-0.04,6.663-0.017,13.326,0.152,19.986c0.112,2.661,0.177,5.347,0.716,7.972
		c0.292,1.366,1.038,2.868,2.584,3.323c2.248,0.609,4.632,0.458,6.932,0.793c0.959,0.258,1.033,1.621,0.162,2.034
		c-1.079,0.516-2.339,0.319-3.496,0.34c-4.12-0.034-8.229-0.177-12.343-0.285c-3.706,0.115-7.412,0.289-11.115,0.299
		c-0.59-0.017-1.214-0.055-1.686-0.394c-0.796-0.435-0.657-1.702,0.225-1.974c1.682-0.386,3.604-0.102,5.124-1.01
		c1.301-1.116,1.454-2.9,1.766-4.422c0.691-5.186,0.519-10.424,0.645-15.636c0.017-13.193,0.003-26.393,0.007-39.586
		c-0.092-3.75,0.051-7.504-0.285-11.244c-0.139-1.435-0.494-3.065-1.858-3.932c-1.973-1.238-4.452-1.165-6.721-1.327
		C600.414,27.405,599.854,26.479,600.254,25.783L600.254,25.783z M622.122,29.806c-0.743,0.075-1.794,0.282-1.658,1.189
		c-0.044,11.395,0.007,22.796-0.021,34.193c-0.01,0.574-0.007,1.334,0.688,1.585c2.377,0.983,5.021,1.156,7.582,1.417
		c3.835,0.204,7.968,0.488,11.485-1.255c3.776-1.945,5.842-5.8,6.862-9.557c1.278-5.152,1.21-10.64-0.414-15.722
		c-1.41-4.483-4.688-8.613-9.352-10.554C632.583,29.018,627.174,29.229,622.122,29.806L622.122,29.806z"/>
	<path fill-rule="evenodd" clip-rule="evenodd" fill="#ffffff" d="M145.489,24.801c0.449-0.839,1.702-0.868,2.238-0.097
		c0.883,1.194,1.278,2.66,1.858,4.013c6.637,17.392,13.164,34.829,19.896,52.186c2.009,5.076,3.82,10.243,6.119,15.2
		c1.312,2.605,2.823,5.324,5.349,6.904c1.614,0.889,3.465,1.269,5.288,1.332c0.578,0.058,1.261-0.01,1.724,0.432
		c0.436,0.491,0.274,1.359-0.295,1.682c-0.879,0.481-1.926,0.4-2.89,0.435c-5.527-0.041-11.06-0.052-16.582-0.272
		c-0.898-0.102-1.991-0.007-2.657-0.742c-0.375-0.79,0.29-1.435,0.948-1.732c0.941-0.512,0.483-1.784,0.2-2.577
		c-3.276-8.653-6.412-17.361-9.764-25.983c-7.57,0.003-15.138-0.014-22.705,0.01c-0.617-0.122-0.765,0.519-0.924,0.96
		c-2.053,6.147-4.124,12.291-6.169,18.441c-0.753,2.286-1.47,4.66-1.375,7.095c0.23,1.628,2.095,2.214,3.506,2.244
		c0.837,0.095,2.077-0.162,2.494,0.808c0.346,1-0.72,1.736-1.607,1.716c-2.999,0.092-5.993-0.269-8.994-0.271
		c-3.788,0.102-7.575,0.295-11.366,0.306c-0.875-0.011-1.929-0.014-2.52-0.78c-0.431-0.773,0.208-1.743,1.065-1.71
		c2.382-0.155,5.017-0.165,6.955-1.803c2.646-2.19,3.765-5.602,4.939-8.722c7.807-21.596,15.628-43.191,23.427-64.792
		C144.195,27.63,144.639,26.11,145.489,24.801L145.489,24.801z M141.323,52.129c-1.993,6.188-3.989,12.376-5.983,18.566
		c6.614,0.003,13.229,0.003,19.843,0c-3.428-9.81-6.797-19.643-10.288-29.429C143.588,44.846,142.527,48.513,141.323,52.129
		L141.323,52.129z"/>
	<path fill-rule="evenodd" clip-rule="evenodd" fill="#ffffff" d="M207.104,27.371c0.141-1.029,0.385-2.404,1.553-2.762
		c1.221-0.148,1.929,0.992,2.365,1.922c10.912,21.892,21.795,43.795,32.71,65.689c10.595-22.058,21.139-44.139,31.738-66.191
		c0.405-0.99,1.706-1.958,2.719-1.104c0.804,0.895,0.795,2.187,0.977,3.308c2.253,20.15,4.506,40.301,6.759,60.451
		c0.458,3.418,0.529,6.92,1.616,10.223c0.634,1.946,1.833,3.902,3.835,4.737c2.445,0.949,5.113,1.122,7.717,1.214
		c0.91-0.095,1.446,1.064,0.856,1.705c-0.817,0.876-2.154,0.767-3.257,0.783c-6.012-0.148-12.032-0.25-18.032-0.698
		c-0.996-0.162-2.458-0.136-2.903-1.214c-0.353-0.779,0.424-1.35,1.062-1.628c0.308-1.498,0.059-3.024-0.069-4.522
		c-1.657-17.354-3.306-34.709-4.961-52.065c-9.254,19.112-18.421,38.264-27.693,57.368c-0.576,0.963-1.027,2.51-2.394,2.55
		c-1.182-0.061-1.665-1.322-2.216-2.149c-4.21-7.612-8.069-15.398-12.068-23.112c-4.454-8.688-8.528-17.55-12.734-26.35
		c-1.121-2.467-2.338-4.886-3.435-7.36c-1.195,13.43-2.363,26.864-3.55,40.295c-0.351,4.381-0.941,8.759-0.748,13.16
		c0.029,1.088,0.771,2.105,1.821,2.476c1.6,0.56,3.316,0.606,4.989,0.796c0.806,0.051,1.207,1.042,0.773,1.672
		c-0.448,0.607-1.263,0.764-1.979,0.777c-4.5,0.095-8.998-0.495-13.496-0.204c-2.105,0.054-4.209,0.265-6.315,0.19
		c-0.824-0.021-1.972-0.288-2.077-1.248c-0.168-0.658,0.533-1.188,1.151-1.2c1.797-0.197,3.895,0.007,5.343-1.255
		c1.433-1.462,1.688-3.588,1.934-5.507C201.77,74.538,204.436,50.955,207.104,27.371L207.104,27.371z"/>
	<path fill-rule="evenodd" clip-rule="evenodd" fill="#ffffff" d="M448.648,42.979c0.361-0.103,0.826-0.346,1.173-0.039
		c0.734,0.651,0.25,1.653,0.129,2.455c-0.476,1.897-0.203,3.886-0.641,5.789c-0.098,0.744-1.181,1.246-1.687,0.549
		c-0.538-1.119-0.251-2.572-1.207-3.521c-1.163-1.029-2.83-1.217-4.346-1.241c-3.081-0.041-7.738-0.125-10.816-0.149
		c0,6.389,0.005,13.749,0.005,20.135c3.989-0.041,7.158-0.027,11.149-0.078c0.861-0.021,1.74-0.051,2.587-0.261
		c0.873-0.184,1.222-1.088,1.957-1.498c0.978-0.241,1.283,0.888,1.049,1.587c-0.568,2.59-0.561,5.245-0.77,7.866
		c-0.019,0.807-1.202,1.177-1.677,0.509c-0.521-1.14-0.156-2.604-1.121-3.567c-0.961-1.021-2.492-1.159-3.84-1.193
		c-3.388-0.092-5.953-0.109-9.34-0.13c0.012,6.605-0.039,12.238,0.164,18.84c0.08,1.529,0.025,3.127,0.648,4.571
		c0.582,1.156,2.117,1.055,3.258,1.201c0.721,0.128,1.769-0.13,2.172,0.644c0.232,0.62-0.322,1.24-0.971,1.274
		c-3.744,0.211-7.492-0.291-11.236-0.034c-1.421,0.034-2.845,0.156-4.255,0.038c-0.854,0.027-1.39-1.177-0.627-1.645
		c1.049-0.502,2.646,0.023,3.362-1.092c0.732-1.539,0.71-3.289,0.793-4.951c0.225-7.364,0.125-14.729,0.149-22.098
		c-0.023-6.022,0.059-12.046-0.095-18.065c-0.104-1.032-0.029-2.346-1.046-2.999c-1.16-0.836-2.696-0.48-4.005-0.827
		c-0.787-0.314-0.56-1.542,0.259-1.66c1.095-0.183,2.218-0.064,3.33-0.074c6.179,0.225,13.938,0.108,20.125,0.124
		C445.062,43.329,446.937,43.6,448.648,42.979L448.648,42.979z"/>
	<path fill-rule="evenodd" clip-rule="evenodd" fill="#ffffff" d="M390.001,44.183c6.58-0.697,13.542,0.486,19.113,4.354
		c3.808,2.587,6.773,6.446,8.443,10.842c2.02,5.217,2.262,11.049,1.294,16.542c-1.075,6.069-4.084,11.824-8.655,15.794
		c-4.452,3.964-10.281,6.073-16.105,6.253c-5.737,0.207-11.689-1.152-16.393-4.699c-4.515-3.289-7.667-8.348-9.184-13.828
		c-2.085-7.141-1.339-15.111,2.112-21.661c2.079-4.144,5.207-7.741,9.084-10.124C382.828,45.7,386.393,44.602,390.001,44.183
		L390.001,44.183z M394.786,48.383v45.035c1.004-0.033,1.998-0.142,2.967-0.305V48.922C396.8,48.678,395.81,48.494,394.786,48.383
		L394.786,48.383z M391.97,93.343V48.259c-1.022,0.022-2.013,0.119-2.967,0.29v44.304C389.979,93.089,390.975,93.252,391.97,93.343
		L391.97,93.343z M386.187,91.933v-42.64c-6.066,2.165-10.242,7.56-11.235,14.895c-0.701,5.138-0.351,10.476,1.248,15.402
		c1.402,4.438,3.864,8.863,7.741,11.207C384.663,91.234,385.414,91.608,386.187,91.933L386.187,91.933z M400.569,49.876v42.559
		c2.585-0.808,4.852-2.079,6.459-3.689c3.442-4.015,4.768-9.512,5.012-14.777c0.348-6.559-0.817-13.518-4.657-18.882
		C405.874,52.976,403.502,51.121,400.569,49.876L400.569,49.876z"/>
</g>
</svg>
